HIERARCHY
ROOT Hips
{
	OFFSET 0.00 0.00 0.00
	CHANNELS 6 Xposition Yposition Zposition Xrotation Yrotation Zrotation
	JOINT Spine
	{
		OFFSET 0.00000 1.84593 2.76889
		CHANNELS 3 Xrotation Yrotation Zrotation
		JOINT Spine1
		{
			OFFSET 0.00000 0.64108 3.63577
			CHANNELS 3 Xrotation Yrotation Zrotation
			JOINT Spine2
			{
				OFFSET 0.00000 0.32177 3.67781
				CHANNELS 3 Xrotation Yrotation Zrotation
				JOINT Spine3
				{
					OFFSET 0.00000 0.00000 3.69186
					CHANNELS 3 Xrotation Yrotation Zrotation
					JOINT Neck
					{
						OFFSET 0.00000 -1.38444 9.69113
						CHANNELS 3 Xrotation Yrotation Zrotation
						JOINT Head
						{
							OFFSET 0.00000 -0.88149 4.99919
							CHANNELS 3 Xrotation Yrotation Zrotation
							End Site
							{
								OFFSET 0.00000 0.00001 5.97620
							}
						}
					}
					JOINT RightShoulder
					{
						OFFSET -1.20115 -2.00191 6.48621
						CHANNELS 3 Xrotation Yrotation Zrotation
						JOINT RightArm
						{
							OFFSET -5.96571 0.00000 0.00000
							CHANNELS 3 Xrotation Yrotation Zrotation
							JOINT RightForeArm
							{
								OFFSET -11.55549 0.00000 0.00000
								CHANNELS 3 Xrotation Yrotation Zrotation
								JOINT RightHand
								{
									OFFSET -10.15554 0.00000 0.00000
									CHANNELS 3 Xrotation Yrotation Zrotation
									JOINT RightHandEnd
									{
										OFFSET -2.81846 0.00000 0.00000
										CHANNELS 3 Xrotation Yrotation Zrotation
										End Site
										{
											OFFSET -2.81846 0.00000 0.00000
										}
									}
									JOINT RightHandThumb1
									{
										OFFSET -1.12738 -1.87897 -0.75159
										CHANNELS 3 Yrotation Xrotation Zrotation
										End Site
										{
											OFFSET -2.72242 -0.72947 0.00000
										}
									}
								}
							}
						}
					}
					JOINT LeftShoulder
					{
						OFFSET 1.20115 -2.00191 6.48621
						CHANNELS 3 Xrotation Yrotation Zrotation
						JOINT LeftArm
						{
							OFFSET 5.96571 0.00000 0.00000
							CHANNELS 3 Xrotation Yrotation Zrotation
							JOINT LeftForeArm
							{
								OFFSET 11.55549 0.00000 0.00000
								CHANNELS 3 Xrotation Yrotation Zrotation
								JOINT LeftHand
								{
									OFFSET 10.15554 0.00000 0.00000
									CHANNELS 3 Xrotation Yrotation Zrotation
									JOINT LeftHandEnd
									{
										OFFSET 2.81846 0.00000 0.00000
										CHANNELS 3 Xrotation Yrotation Zrotation
										End Site
										{
											OFFSET 2.81846 0.00000 0.00000
										}
									}
									JOINT LeftHandThumb1
									{
										OFFSET 1.12738 -1.87897 -0.75159
										CHANNELS 3 Yrotation Xrotation Zrotation
										End Site
										{
											OFFSET 2.72242 -0.72947 0.00000
										}
									}
								}
							}
						}
					}
				}
			}
		}
	}
	JOINT RightUpLeg
	{
		OFFSET -3.56341 0.00000 -1.04100
		CHANNELS 3 Xrotation Yrotation Zrotation
		JOINT RightLeg
		{
			OFFSET 0.00001 0.00000 -16.70611
			CHANNELS 3 Xrotation Yrotation Zrotation
			JOINT RightFoot
			{
				OFFSET 0.00001 0.00000 -16.32118
				CHANNELS 3 Xrotation Yrotation Zrotation
				JOINT RightToeBase
				{
					OFFSET 0.00000 -5.82844 -2.12138
					CHANNELS 3 Xrotation Yrotation Zrotation
					End Site
					{
						OFFSET 0.00000 -2.88276 -0.00000
					}
				}
			}
		}
	}
	JOINT LeftUpLeg
	{
		OFFSET 3.56341 0.00000 -1.04100
		CHANNELS 3 Xrotation Yrotation Zrotation
		JOINT LeftLeg
		{
			OFFSET 0.00001 0.00000 -16.70611
			CHANNELS 3 Xrotation Yrotation Zrotation
			JOINT LeftFoot
			{
				OFFSET 0.00001 0.00000 -16.32118
				CHANNELS 3 Xrotation Yrotation Zrotation
				JOINT LeftToeBase
				{
					OFFSET 0.00000 -5.82844 -2.12138
					CHANNELS 3 Xrotation Yrotation Zrotation
					End Site
					{
						OFFSET 0.00000 -2.88276 -0.00000
					}
				}
			}
		}
	}
}
MOTION
Frames: 13
Frame Time: 0.008342
 3.7869 -36.7882 35.4042 8.8195 0.5895 94.2097 3.3152 -0.0124 -0.1419 1.1515 -1.2044 -0.0132 5.0288 3.3176 2.4732 1.4766 0.6894 -1.3055 -3.0182 11.9914 6.7112 -5.3814 -0.8668 -3.4171 4.6400 1.8463 20.3894 6.7990 -38.0963 22.8034 -0.0000 0.0001 97.1588 -19.4677 -9.7437 -11.4357 0.0000 0.0000 -0.0000 -0.0000 -0.0000 -0.0000 16.5496 3.4200 -17.3551 -14.2842 37.7476 -27.8913 -0.0001 -0.0000 -133.8768 -47.2138 -38.9875 -23.3167 -0.0000 -0.0000 -0.0000 -0.0000 0.0000 0.0000 -27.1157 14.3499 1.4318 47.1316 0.0000 0.0000 -6.9062 -1.3712 -18.7612 -8.3725 0.0000 -0.0000 -8.0728 13.1465 19.3953 13.1110 0.0000 0.0000 -8.2684 -0.3345 6.8250 -2.5448 0.0000 -0.0000
 3.8028 -36.7912 35.4185 8.6376 0.5948 94.1527 3.2904 -0.0963 -0.1261 1.1524 -1.2395 -0.0197 5.0269 3.2292 2.4101 1.4685 0.6777 -1.2964 -3.0020 12.0090 6.6496 -5.3829 -0.8220 -3.4568 4.6154 1.9659 20.3036 6.9897 -37.9225 22.8542 -0.0000 0.0001 97.2018 -19.4027 -9.7462 -11.3366 -0.0000 0.0000 0.0000 0.0000 0.0000 -0.0000 16.7945 3.3527 -17.3267 -14.1432 38.0103 -28.0033 -0.0001 -0.0000 -133.8819 -47.3048 -39.0226 -23.4099 0.0000 0.0000 -0.0000 -0.0000 -0.0000 0.0000 -26.6964 14.3109 0.8595 46.4548 0.0000 0.0000 -7.2357 -1.1824 -18.5184 -8.0469 0.0000 -0.0000 -8.0743 12.9752 19.1860 13.1142 0.0000 0.0000 -8.2963 -0.3357 7.0272 -2.5595 0.0000 -0.0000
 3.8209 -36.7971 35.4350 8.4434 0.5766 94.0714 3.2761 -0.1713 -0.1087 1.1571 -1.2829 -0.0291 5.0305 3.1353 2.3685 1.4646 0.6541 -1.2668 -2.9736 12.0300 6.5611 -5.3938 -0.7830 -3.4824 4.6024 2.1045 20.2113 7.1667 -37.7446 22.9068 -0.0000 0.0001 97.2356 -19.3485 -9.7581 -11.2430 -0.0000 0.0000 0.0000 -0.0000 -0.0000 -0.0000 17.0445 3.2754 -17.3165 -13.9959 38.2792 -28.1159 -0.0001 -0.0000 -133.8930 -47.3855 -39.0773 -23.5010 -0.0000 -0.0000 -0.0000 -0.0000 -0.0000 0.0000 -26.2916 14.2445 0.2569 45.8225 0.0000 0.0000 -7.4463 -0.9364 -18.2461 -7.7971 0.0000 -0.0000 -8.0385 12.7789 19.0477 13.0953 0.0000 0.0000 -8.3171 -0.3213 7.1847 -2.5762 0.0000 -0.0000
 3.8412 -36.8060 35.4535 8.2372 0.5315 93.9716 3.2784 -0.2459 -0.0921 1.1583 -1.3131 -0.0299 5.0460 3.0214 2.3306 1.4639 0.6203 -1.2162 -2.9328 12.0520 6.4512 -5.4157 -0.7510 -3.4969 4.5975 2.2559 20.1186 7.3324 -37.5633 22.9551 -0.0000 0.0001 97.2634 -19.3031 -9.7782 -11.1587 -0.0000 -0.0000 -0.0000 0.0000 -0.0000 -0.0000 17.3004 3.1898 -17.3188 -13.8435 38.5500 -28.2335 -0.0001 -0.0000 -133.9091 -47.4606 -39.1459 -23.5966 0.0000 0.0000 -0.0000 -0.0000 -0.0000 0.0000 -25.8895 14.1519 -0.3673 45.2278 0.0000 0.0000 -7.5568 -0.6611 -17.9568 -7.6009 0.0000 -0.0000 -7.9605 12.5596 18.9677 13.0537 0.0000 0.0000 -8.3319 -0.2944 7.3038 -2.5922 0.0000 -0.0000
 3.8625 -36.8179 35.4734 8.0184 0.4838 93.8608 3.2709 -0.3173 -0.0773 1.1621 -1.3464 -0.0333 5.0703 2.9060 2.3047 1.4668 0.5790 -1.1523 -2.8829 12.0679 6.3255 -5.4460 -0.7279 -3.5044 4.6052 2.4118 20.0282 7.4831 -37.3778 22.9998 -0.0000 0.0001 97.2855 -19.2632 -9.8042 -11.0832 0.0000 -0.0000 -0.0000 0.0000 -0.0000 0.0000 17.5532 3.0955 -17.3318 -13.6856 38.8150 -28.3484 -0.0001 -0.0000 -133.9324 -47.5175 -39.2321 -23.6837 0.0000 0.0000 -0.0000 0.0000 0.0000 0.0000 -25.5103 14.0353 -1.0020 44.6657 0.0000 0.0000 -7.5887 -0.3826 -17.6601 -7.4373 0.0000 -0.0000 -7.8715 12.3201 18.9253 12.9981 0.0000 0.0000 -8.3428 -0.2607 7.3992 -2.6038 0.0000 -0.0000
 3.8862 -36.8322 35.4948 7.7989 0.4110 93.7403 3.2795 -0.3784 -0.0620 1.1660 -1.3811 -0.0369 5.1017 2.7912 2.2915 1.4723 0.5323 -1.0847 -2.8227 12.0723 6.1881 -5.4841 -0.7114 -3.5070 4.6239 2.5686 19.9399 7.6245 -37.1918 23.0446 -0.0000 0.0001 97.3033 -19.2274 -9.8357 -11.0165 -0.0000 0.0000 -0.0000 -0.0000 -0.0000 0.0000 17.8060 2.9879 -17.3468 -13.5242 39.0754 -28.4661 -0.0001 -0.0000 -133.9612 -47.5530 -39.3365 -23.7628 0.0000 -0.0000 0.0000 0.0000 0.0000 0.0000 -25.1220 13.9074 -1.6317 44.1299 0.0000 0.0000 -7.5727 -0.1228 -17.3558 -7.2873 0.0000 -0.0000 -7.7398 12.0748 18.9118 12.9170 0.0000 0.0000 -8.3456 -0.2191 7.4764 -2.6102 0.0000 -0.0000
 3.9103 -36.8490 35.5169 7.5721 0.3467 93.6193 3.2738 -0.4376 -0.0479 1.1677 -1.4107 -0.0399 5.1401 2.6737 2.2769 1.4808 0.4820 -1.0082 -2.7553 12.0648 6.0450 -5.5272 -0.7047 -3.5098 4.6529 2.7170 19.8573 7.7560 -37.0014 23.0845 -0.0000 0.0001 97.3204 -19.1942 -9.8711 -10.9586 0.0000 -0.0000 0.0000 -0.0000 0.0000 0.0000 18.0565 2.8734 -17.3642 -13.3654 39.3206 -28.5805 -0.0001 -0.0000 -133.9953 -47.5705 -39.4550 -23.8309 0.0000 -0.0000 -0.0000 0.0000 0.0000 0.0000 -24.7536 13.7653 -2.2494 43.6123 0.0000 0.0000 -7.5288 0.1033 -17.0467 -7.1363 0.0000 -0.0000 -7.6113 11.8194 18.9048 12.8268 0.0000 0.0000 -8.3453 -0.1778 7.5503 -2.6083 0.0000 -0.0000
 3.9358 -36.8681 35.5397 7.3457 0.2762 93.5005 3.2689 -0.4925 -0.0349 1.1696 -1.4361 -0.0394 5.1839 2.5604 2.2613 1.4894 0.4288 -0.9322 -2.6813 12.0408 5.9008 -5.5729 -0.7048 -3.5147 4.6983 2.8541 19.7737 7.8806 -36.8049 23.1357 -0.0000 0.0001 97.3334 -19.1646 -9.9071 -10.9054 -0.0000 0.0000 -0.0000 0.0000 -0.0000 -0.0000 18.3014 2.7534 -17.3761 -13.2090 39.5479 -28.6925 -0.0001 -0.0000 -134.0324 -47.5713 -39.5816 -23.8857 0.0000 0.0000 -0.0000 -0.0000 -0.0000 0.0000 -24.3821 13.6185 -2.8460 43.1068 0.0000 0.0000 -7.4820 0.2871 -16.7256 -6.9755 0.0000 -0.0000 -7.4666 11.5631 18.8979 12.7227 0.0000 0.0000 -8.3402 -0.1358 7.6232 -2.5976 0.0000 -0.0000
 3.9620 -36.8894 35.5628 7.1172 0.2098 93.3894 3.2585 -0.5502 -0.0235 1.1673 -1.4440 -0.0359 5.2327 2.4377 2.2448 1.4993 0.3793 -0.8635 -2.6036 11.9991 5.7616 -5.6175 -0.7116 -3.5238 4.7466 2.9728 19.7014 8.0041 -36.6084 23.1820 -0.0000 0.0001 97.3493 -19.1369 -9.9483 -10.8579 0.0000 0.0000 -0.0000 0.0000 -0.0000 -0.0000 18.5380 2.6313 -17.3790 -13.0594 39.7540 -28.7963 -0.0001 -0.0000 -134.0723 -47.5588 -39.7103 -23.9243 0.0000 0.0000 -0.0000 0.0000 -0.0000 -0.0000 -24.0119 13.4670 -3.4192 42.6061 0.0000 0.0000 -7.4460 0.4274 -16.3879 -6.8028 0.0000 -0.0000 -7.3209 11.3042 18.8799 12.6123 0.0000 0.0000 -8.3327 -0.0971 7.7007 -2.5777 0.0000 -0.0000
 3.9889 -36.9125 35.5860 6.8937 0.1460 93.2860 3.2461 -0.5930 -0.0093 1.1645 -1.4741 -0.0415 5.2805 2.3428 2.2327 1.5084 0.3287 -0.7992 -2.5206 11.9368 5.6248 -5.6600 -0.7226 -3.5375 4.8023 3.0715 19.6315 8.1269 -36.4153 23.2330 -0.0000 0.0001 97.3665 -19.1109 -9.9952 -10.8128 0.0000 -0.0000 -0.0000 0.0000 -0.0000 -0.0000 18.7683 2.5035 -17.3728 -12.9223 39.9386 -28.8900 -0.0001 -0.0000 -134.1131 -47.5408 -39.8360 -23.9494 0.0000 0.0000 -0.0000 -0.0000 0.0000 0.0000 -23.6402 13.3193 -3.9644 42.1096 0.0000 0.0000 -7.4329 0.5295 -16.0245 -6.6207 0.0000 -0.0000 -7.1728 11.0505 18.8500 12.4955 0.0000 0.0000 -8.3212 -0.0603 7.7840 -2.5495 0.0000 -0.0000
 4.0173 -36.9374 35.6095 6.6710 0.0721 93.1931 3.2434 -0.6391 0.0049 1.1631 -1.4900 -0.0431 5.3256 2.2444 2.2140 1.5172 0.2820 -0.7414 -2.4344 11.8571 5.4938 -5.6975 -0.7371 -3.5559 4.8571 3.1475 19.5666 8.2551 -36.2268 23.2860 -0.0000 0.0001 97.3870 -19.0899 -10.0509 -10.7705 0.0000 0.0000 0.0000 -0.0000 -0.0000 0.0000 18.9872 2.3789 -17.3551 -12.7960 40.0978 -28.9714 -0.0001 -0.0000 -134.1536 -47.5213 -39.9510 -23.9592 0.0000 0.0000 0.0000 0.0000 -0.0000 0.0000 -23.2459 13.1717 -4.4885 41.6087 0.0000 0.0000 -7.4452 0.6031 -15.6311 -6.4354 0.0000 -0.0000 -7.0083 10.7962 18.8110 12.3748 0.0000 0.0000 -8.3080 -0.0256 7.8660 -2.5140 0.0000 -0.0000
 4.0459 -36.9645 35.6330 6.4414 0.0079 93.1137 3.2318 -0.6948 0.0164 1.1581 -1.4938 -0.0424 5.3735 2.1441 2.1920 1.5258 0.2384 -0.6921 -2.3498 11.7631 5.3695 -5.7265 -0.7566 -3.5792 4.9117 3.2009 19.5080 8.3824 -36.0444 23.3378 -0.0000 0.0001 97.4118 -19.0720 -10.1175 -10.7301 0.0000 0.0000 -0.0000 0.0000 -0.0000 0.0000 19.1943 2.2618 -17.3267 -12.6857 40.2277 -29.0377 -0.0001 -0.0000 -134.1927 -47.5096 -40.0501 -23.9574 0.0000 -0.0000 -0.0000 0.0000 -0.0000 0.0000 -22.8495 13.0166 -4.9988 41.1007 0.0000 0.0000 -7.4759 0.6616 -15.2090 -6.2539 0.0000 -0.0000 -6.8578 10.5318 18.7640 12.2645 0.0000 0.0000 -8.2982 0.0037 7.9432 -2.4725 0.0000 -0.0000
 4.0747 -36.9928 35.6560 6.2210 -0.0501 93.0405 3.2181 -0.7381 0.0318 1.1524 -1.5092 -0.0461 5.4171 2.0629 2.1701 1.5336 0.1974 -0.6462 -2.2635 11.6521 5.2461 -5.7483 -0.7768 -3.6048 4.9635 3.2336 19.4493 8.5120 -35.8772 23.3922 -0.0000 0.0001 97.4394 -19.0569 -10.1996 -10.6915 -0.0000 0.0000 0.0000 0.0000 -0.0000 0.0000 19.3906 2.1459 -17.2901 -12.5926 40.3325 -29.0870 -0.0001 -0.0000 -134.2305 -47.5063 -40.1311 -23.9442 0.0000 -0.0000 0.0000 -0.0000 0.0000 -0.0000 -22.4558 12.8695 -5.4903 40.5960 0.0000 0.0000 -7.5238 0.7180 -14.7560 -6.0834 0.0000 -0.0000 -6.7139 10.2747 18.7208 12.1578 0.0000 0.0000 -8.2857 0.0331 8.0129 -2.4294 0.0000 -0.0000
